Coordinates
version=1
nRows=19
nColumns=27
inDegrees=yes

Units are S.I. units (second, meters, Newtons, ...)
If the header above contains a line with 'inDegrees', this indicates whether rotational values are in degrees (yes) or radians (no).

endheader
time	pelvis_rotation	pelvis_tilt	pelvis_list	pelvis_tx	pelvis_ty	pelvis_tz	hip_flexion_r	hip_adduction_r	hip_rotation_r	knee_angle_r	knee_rotation_r	knee_adduction_r	knee_angle_r_beta	ankle_angle_r	subtalar_angle_r	mtp_angle_r	hip_flexion_l	hip_adduction_l	hip_rotation_l	knee_angle_l	knee_rotation_l	knee_adduction_l	knee_angle_l_beta	ankle_angle_l	subtalar_angle_l	mtp_angle_l
      5.33500000	      9.07101546	    -46.10637045	      6.98018255	     -0.03646808	      0.64392789	     -1.17804032	    112.43967466	    -43.29858227	      2.73697318	     74.63338497	      0.00000000	      0.00000000	      1.30259830	      1.31618126	      0.00000000	      0.00000000	    109.37891549	    -26.06144571	     -1.31397463	     69.64741486	      0.00000000	      0.00000000	      1.21557670	     -4.48923868	      0.00000000	      0.00000000
      5.34000000	      9.05105023	    -46.05154955	      6.98710388	     -0.03600212	      0.64476034	     -1.17827997	    112.21256724	    -43.32566001	      2.61641688	     74.47430336	      0.00000000	      0.00000000	      1.29982180	      1.25403617	      0.00000000	      0.00000000	    109.15968956	    -26.05264082	     -1.40007294	     69.53332132	      0.00000000	      0.00000000	      1.21358540	     -4.46566403	      0.00000000	      0.00000000
      5.34500000	      8.96005074	    -45.95015246	      6.95514765	     -0.03551191	      0.64554818	     -1.17846838	    111.92911157	    -43.29827487	      2.49598430	     74.32613127	      0.00000000	      0.00000000	      1.29723571	      1.22148989	      0.00000000	      0.00000000	    108.89462356	    -26.10736441	     -1.49216427	     69.43301065	      0.00000000	      0.00000000	      1.21183465	     -4.44994138	      0.00000000	      0.00000000
      5.35000000	      8.94146394	    -45.94555866	      6.95761439	     -0.03511317	      0.64626394	     -1.17868802	    111.77107051	    -43.31201767	      2.39594061	     74.18119972	      0.00000000	      0.00000000	      1.29470618	      1.15206009	      0.00000000	      0.00000000	    108.76610427	    -26.09451528	     -1.53736649	     69.34851722	      0.00000000	      0.00000000	      1.21035996	     -4.45933401	      0.00000000	      0.00000000
      5.35500000	      8.87784089	    -45.86671343	      6.93884777	     -0.03461353	      0.64705014	     -1.17887872	    111.51384264	    -43.30056310	      2.28009879	     74.03196685	      0.00000000	      0.00000000	      1.29210157	      1.11455422	      0.00000000	      0.00000000	    108.52125276	    -26.12534907	     -1.62626759	     69.24110456	      0.00000000	      0.00000000	      1.20848525	     -4.41251445	      0.00000000	      0.00000000
      5.36000000	      8.87759322	    -45.79915067	      6.91865581	     -0.03411042	      0.64778977	     -1.17908359	    111.25110992	    -43.36019773	      2.11902643	     73.88857649	      0.00000000	      0.00000000	      1.28959894	      1.07506943	      0.00000000	      0.00000000	    108.32570639	    -26.08971187	     -1.65935538	     69.14411830	      0.00000000	      0.00000000	      1.20679252	     -4.39025101	      0.00000000	      0.00000000
      5.36500000	      8.45233087	    -45.64131819	      6.78356373	     -0.03369548	      0.64858903	     -1.17913557	    110.90762634	    -42.98013113	      2.11202169	     73.71039303	      0.00000000	      0.00000000	      1.28648905	      1.08587515	      0.00000000	      0.00000000	    107.93929611	    -26.44480274	     -1.84230371	     69.05340524	      0.00000000	      0.00000000	      1.20520928	     -4.33947737	      0.00000000	      0.00000000
      5.37000000	      8.81318664	    -45.66817731	      6.88817088	     -0.03314097	      0.64912464	     -1.17942092	    110.79626052	    -43.39430099	      1.89236414	     73.63915477	      0.00000000	      0.00000000	      1.28524571	      1.00515179	      0.00000000	      0.00000000	    107.93623509	    -26.09947289	     -1.76967241	     68.97790421	      0.00000000	      0.00000000	      1.20389154	     -4.35819557	      0.00000000	      0.00000000
      5.37500000	      8.36320805	    -45.50296129	      6.74440296	     -0.03271517	      0.64990814	     -1.17942924	    110.44957576	    -42.98242102	      1.90452517	     73.46919105	      0.00000000	      0.00000000	      1.28227928	      1.03895642	      0.00000000	      0.00000000	    107.53906659	    -26.47463069	     -1.95507241	     68.88688425	      0.00000000	      0.00000000	      1.20230294	     -4.31548466	      0.00000000	      0.00000000
      5.38000000	      8.70052759	    -45.52987925	      6.86115269	     -0.03215014	      0.65040912	     -1.17968753	    110.36502967	    -43.36233365	      1.72379579	     73.40823308	      0.00000000	      0.00000000	      1.28121537	      0.96245332	      0.00000000	      0.00000000	    107.52321884	    -26.16722937	     -1.91794397	     68.81627481	      0.00000000	      0.00000000	      1.20107057	     -4.32307340	      0.00000000	      0.00000000
      5.38500000	      8.66311852	    -45.46074128	      6.83509364	     -0.03163375	      0.65105173	     -1.17981729	    110.12756434	    -43.36922997	      1.60733597	     73.29233222	      0.00000000	      0.00000000	      1.27919251	      0.93285292	      0.00000000	      0.00000000	    107.32913271	    -26.17188521	     -1.95607966	     68.73679907	      0.00000000	      0.00000000	      1.19968346	     -4.28819149	      0.00000000	      0.00000000
      5.39000000	      8.23548142	    -45.32081331	      6.68043427	     -0.03121655	      0.65182007	     -1.17981743	    109.78464123	    -42.96962064	      1.60162555	     73.11540268	      0.00000000	      0.00000000	      1.27610451	      0.96581656	      0.00000000	      0.00000000	    106.97590762	    -26.52358986	     -2.10826260	     68.64548896	      0.00000000	      0.00000000	      1.19808980	     -4.25569465	      0.00000000	      0.00000000
      5.39500000	      8.59387229	    -45.33227330	      6.80828108	     -0.03057908	      0.65234731	     -1.18004373	    109.68214127	    -43.36942724	      1.41221593	     73.06578647	      0.00000000	      0.00000000	      1.27523854	      0.90343343	      0.00000000	      0.00000000	    106.93617053	    -26.19513153	     -2.06836010	     68.57058012	      0.00000000	      0.00000000	      1.19678239	     -4.24395369	      0.00000000	      0.00000000
      5.40000000	      8.48561762	    -45.25928549	      6.80642765	     -0.03003694	      0.65298965	     -1.18010892	    109.49298754	    -43.27710596	      1.39577076	     72.95766386	      0.00000000	      0.00000000	      1.27335145	      0.89107105	      0.00000000	      0.00000000	    106.69217697	    -26.29024174	     -2.19290096	     68.48856277	      0.00000000	      0.00000000	      1.19535092	     -4.21264366	      0.00000000	      0.00000000
      5.40500000	      8.48382919	    -45.18697012	      6.78944146	     -0.02947187	      0.65367775	     -1.18021243	    109.23463540	    -43.31475519	      1.26180726	     72.84352442	      0.00000000	      0.00000000	      1.27135934	      0.89440644	      0.00000000	      0.00000000	    106.49262580	    -26.25819824	     -2.21651273	     68.39605313	      0.00000000	      0.00000000	      1.19373632	     -4.19065543	      0.00000000	      0.00000000
      5.41000000	      8.50962058	    -45.12087307	      6.76773759	     -0.02887580	      0.65438965	     -1.18032329	    108.95843758	    -43.37708082	      1.09879757	     72.71771991	      0.00000000	      0.00000000	      1.26916364	      0.88549748	      0.00000000	      0.00000000	    106.30805679	    -26.19742844	     -2.21597909	     68.30006349	      0.00000000	      0.00000000	      1.19206099	     -4.16365086	      0.00000000	      0.00000000
      5.41500000	      8.47082929	    -45.06479655	      6.75879204	     -0.02827635	      0.65510216	     -1.18038234	    108.73424613	    -43.35765074	      1.00964195	     72.60404731	      0.00000000	      0.00000000	      1.26717968	      0.89476860	      0.00000000	      0.00000000	    106.10106199	    -26.21341346	     -2.27873983	     68.20357240	      0.00000000	      0.00000000	      1.19037690	     -4.14282259	      0.00000000	      0.00000000
      5.42000000	      8.45520321	    -45.00574073	      6.74283555	     -0.02767350	      0.65585887	     -1.18046375	    108.47982966	    -43.36607250	      0.88507725	     72.47540409	      0.00000000	      0.00000000	      1.26493443	      0.88588618	      0.00000000	      0.00000000	    105.89366983	    -26.19358756	     -2.31154591	     68.09535050	      0.00000000	      0.00000000	      1.18848807	     -4.10886159	      0.00000000	      0.00000000
      5.42500000	      8.46464104	    -44.87416616	      6.72599499	     -0.02696020	      0.65666587	     -1.18048935	    108.13595431	    -43.42283742	      0.71330548	     72.35774592	      0.00000000	      0.00000000	      1.26288091	      0.85504624	      0.00000000	      0.00000000	    105.59774392	    -26.15710300	     -2.36075537	     67.96745064	      0.00000000	      0.00000000	      1.18625580	     -4.06242902	      0.00000000	      0.00000000
